<svg xmlns="http://www.w3.org/2000/svg" viewBox="0 0 3840 2160">
    <path d="M237,1071c8-29,13-50,13-50L415,706l51,27,30,6,113,8.5V743l87,3,6-8,1-14,22.5.5v-2.13l102-91.87,2-3,3-2,83-78,1-3,4-1,141-136h7.62l8.38-13s1-11,8-11L1095,366l509,332,62,12,37-67,822.5,465.5,6-6,18,10,22,2,41,23h5.7l5.3,4h14l15,14,17,6,6,5,10-5h5l8,1,3.12,4,.88,2,2-2,6,9,24,11s12,5,28-2,34,3,43,18,12,21,28,19c5-1,12,1,17,3s15,4,26,7,25,12,31,19,25,23,41,27,31,20,34,27,5,14,5,22-7,26,3,34,142,81,142,81,2,2,12,1,17-2,23,1,18,4,27-1,12-11,23-6,20,8,36,21,23,29,37,29,51-3,64,11,8,27,24,25,16-14,13-21-17-17-10-25,10-7,17-2,29,30,49,27,37-27,40-50c0-7,1-13,2-15s5-11-3-18-18-14-29-1-3,23-22,25c-5,0-10-3-15,1s-20,4-26-1-15-9-22-34c-2-4-9-12-15-12s-17-6-19-16-13-34-31-41c-6-2-34-15-34-15s-14-6-21-17-11-20-23-19-33,2-38-13-16-36-32-47-33-15-48-11-27,11-40,5-30-19-41-36c-6-9-17-13-28-11s-22,1-32-8-31-37-44-42-24-26-24-26-15-26-37-25-50,2-50,2c-14,0-15-15-15-15s-3-17-17-23-40-18-52-22a54.85,54.85,0,0,1-25-17c-5-6-34-40-51-46s-21-8-21-3,5,3,5,3"/>
</svg>
